<?xml version="1.0" encoding="utf-8" ?><svg xmlns="http://www.w3.org/2000/svg" xmlns:xlink="http://www.w3.org/1999/xlink" width="128" height="128" viewBox="0 0 128 128"><path fill="#006FF4" d="M60.1388 33.861C65.7745 33.3148 76.647 34.5016 82.1781 36.0056C97.8431 40.2653 109.445 49.4122 117.57 63.3349C116.239 66.3822 112.977 70.8853 110.75 73.3497C98.7807 86.5959 84.9318 91.8302 67.5625 92.9389C58.5242 92.943 51.9979 92.867 43.0779 90.3382C28.6181 86.193 16.4094 76.4509 9.15823 63.2718C12.0235 59.568 13.0708 56.7983 16.9 52.7778C29.0483 40.023 43.0305 34.7697 60.1388 33.861ZM65.3922 83.2382C76.3447 82.1734 84.3581 72.4282 83.2869 61.4763C82.2158 50.5244 72.466 42.5166 61.5147 43.5941C50.5723 44.6707 42.5725 54.4108 43.6428 65.3538C44.7131 76.2968 54.4486 84.3022 65.3922 83.2382ZM19.3535 63.5191C23.9673 70.6659 29.2906 76.726 37.1441 80.5068C42.5445 83.1321 45.1377 83.8469 50.9173 85.5245C49.4207 84.2411 47.5157 83.0645 46.1746 81.78C36.2839 72.3067 35.4841 56.5427 44.7682 46.3558C45.7056 45.3237 49.4977 42.7384 49.8316 42.0409L49.3198 41.6944C47.5327 42.346 45.7271 42.8352 43.9195 43.4282C33.3226 46.9048 24.9162 53.858 19.3535 63.5191ZM78.2074 84.3844C83.5546 83.7604 87.4279 81.8204 92.1322 79.2724C92.8372 78.8119 95.8672 76.8581 96.5235 76.2349C99.9532 72.9777 105.169 68.3004 106.87 63.9133C107.144 62.9969 106.406 61.5391 105.902 60.8554C99.7924 52.5673 91.4093 45.4246 81.1717 43.0689C80.3166 42.8722 79.6524 42.9182 78.8001 43.0607C78.8089 43.0794 78.8178 43.0982 78.8266 43.1169C87.4973 50.1359 90.7919 60.8 87.4428 71.4889C85.1118 78.9287 82.0987 79.1831 78.2074 84.3844Z"/><path fill="#006FF4" d="M61.5693 48.2262C69.9859 47.1684 77.6663 53.1343 78.7235 61.551C79.7806 69.9677 73.814 77.6477 65.3972 78.704C56.9814 79.7603 49.3026 73.7946 48.2456 65.3789C47.1887 56.9632 53.1537 49.2839 61.5693 48.2262Z"/></svg>